<?xml version="1.0" encoding="iso-8859-1"?>
<!-- Generator: Adobe Illustrator 19.0.0, SVG Export Plug-In . SVG Version: 6.00 Build 0)  -->
<svg version="1.1" id="Capa_1" xmlns="http://www.w3.org/2000/svg" xmlns:xlink="http://www.w3.org/1999/xlink" x="0px" y="0px"
	 viewBox="0 0 512 512" style="enable-background:new 0 0 512 512;" xml:space="preserve">
<path style="fill:#303C42;" d="M480,21.333c-4.167,0-8.146,0.792-11.792,2.25C464.5,10,452.063,0,437.333,0
	s-27.167,10-30.875,23.583c-3.646-1.458-7.625-2.25-11.792-2.25c-17.646,0-32,14.354-32,32v27.279
	c-38.055-24.885-81.917-37.945-128-37.945C105.271,42.667,0,147.938,0,277.333S105.271,512,234.667,512
	s234.667-105.271,234.667-234.667c0-17.027-2.201-33.897-5.828-50.427C492.04,213.751,512,185.055,512,151.625V53.333
	C512,35.688,497.646,21.333,480,21.333z"/>
<path style="fill:#FED600;" d="M448,277.333c0,117.625-95.708,213.333-213.333,213.333S21.333,394.958,21.333,277.333
	S117.042,64,234.667,64c46.526,0,90.516,14.77,128,42.979v4.042l-5.229-5.771c-13.458-13.417-35.271-13.417-48.688,0
	c-12.542,12.563-13.521,32.417-1.542,46.979l57.875,57.188c18.521,22.625,45.333,25.25,63.875,25.25
	c4.819,0,9.477-0.632,14.073-1.423C446.078,247.711,448,262.444,448,277.333z"/>
<path style="opacity:0.1;fill:#010101;enable-background:new    ;" d="M443.031,233.243c-4.596,0.792-9.254,1.423-14.073,1.423
	c-2.699,0-5.608-0.092-8.607-0.258c0.475,5.404,0.982,10.807,0.982,16.258C421.333,368.292,325.625,464,208,464
	c-52.038,0-99.738-18.785-136.807-49.859c39.167,46.721,97.887,76.526,163.474,76.526C352.292,490.667,448,394.958,448,277.333
	C448,262.444,446.078,247.711,443.031,233.243z"/>
<path style="fill:#FED600;" d="M490.667,151.625c0,34.021-27.688,61.708-61.708,61.708c-22.896,0-37.5-5.375-48.125-18.25
	l-57.875-57.188c-4.271-5.229-3.896-12.792,0.875-17.563c2.604-2.604,6.042-3.875,9.396-3.875c3.25,0,6.438,1.188,8.771,3.5
	l23.438,25.875c2.958,3.271,7.604,4.375,11.729,2.792c4.125-1.583,6.833-5.542,6.833-9.958V53.333
	c0-5.875,4.792-10.667,10.667-10.667s10.667,4.792,10.667,10.667V96c0,5.896,4.771,10.667,10.667,10.667
	c5.896,0,10.667-4.771,10.667-10.667V32c0-5.875,4.792-10.667,10.667-10.667S448,26.125,448,32v64
	c0,5.896,4.771,10.667,10.667,10.667c5.896,0,10.667-4.771,10.667-10.667V53.333c0-5.875,4.792-10.667,10.667-10.667
	s10.667,4.792,10.667,10.667V151.625z"/>
<path style="opacity:0.1;fill:#010101;enable-background:new    ;" d="M480,42.667c-1.982,0-3.736,0.691-5.328,1.639v91.324
	c0,34.021-27.688,61.708-61.708,61.708c-22.896,0-37.5-5.375-48.125-18.25l-42.105-41.605c0.098,0.129,0.122,0.286,0.225,0.413
	l57.875,57.188c10.625,12.875,25.229,18.25,48.125,18.25c34.021,0,61.708-27.688,61.708-61.708V53.333
	C490.667,47.458,485.875,42.667,480,42.667z"/>
<g>
	<circle style="fill:#303C42;" cx="149.333" cy="213.333" r="21.333"/>
	<circle style="fill:#303C42;" cx="320" cy="213.333" r="21.333"/>
	<path style="fill:#303C42;" d="M354.604,320.313c-5.771-1.396-11.5,2.042-12.958,7.75c-11.063,44.063-57.042,77.271-106.979,77.271
		c-49.979,0-95.979-33.208-106.979-77.25c-1.417-5.729-7.313-9.188-12.938-7.771c-5.729,1.438-9.188,7.229-7.771,12.938
		c13.542,54.125,67.229,93.417,127.688,93.417c60.396,0,114.083-39.271,127.688-93.396
		C363.771,327.542,360.313,321.75,354.604,320.313z"/>
</g>
<linearGradient id="SVGID_1_" gradientUnits="userSpaceOnUse" x1="-44.6282" y1="640.3711" x2="-24.6909" y2="631.073" gradientTransform="matrix(21.3333 0 0 -21.3333 996.3334 13791.667)">
	<stop  offset="0" style="stop-color:#FFFFFF;stop-opacity:0.2"/>
	<stop  offset="1" style="stop-color:#FFFFFF;stop-opacity:0"/>
</linearGradient>
<path style="fill:url(#SVGID_1_);" d="M480,21.333c-4.167,0-8.146,0.792-11.792,2.25C464.5,10,452.063,0,437.333,0
	s-27.167,10-30.875,23.583c-3.646-1.458-7.625-2.25-11.792-2.25c-17.646,0-32,14.354-32,32v27.279
	c-38.055-24.885-81.917-37.945-128-37.945C105.271,42.667,0,147.938,0,277.333S105.271,512,234.667,512
	s234.667-105.271,234.667-234.667c0-17.027-2.201-33.897-5.828-50.427C492.04,213.751,512,185.055,512,151.625V53.333
	C512,35.688,497.646,21.333,480,21.333z"/>
<g>
</g>
<g>
</g>
<g>
</g>
<g>
</g>
<g>
</g>
<g>
</g>
<g>
</g>
<g>
</g>
<g>
</g>
<g>
</g>
<g>
</g>
<g>
</g>
<g>
</g>
<g>
</g>
<g>
</g>
</svg>
